{"title":"The Avengers 2012 CROPPED R6 WEBscr Xvid AC3-TODE ","uid":7273050,"size":1438617198,"categoryP":"video","categoryS":"movies","magnet":"?xt=urn:btih:3fbc96a7cb25b43af7723def9dadfb6dddd25888&amp;dn=The+Avengers+2012+CROPPED+R6+WEBscr+Xvid+AC3-TODE+&amp;tr=udp%3A%2F%2Ftracker.openbittorrent.com%3A80&amp;tr=udp%3A%2F%2Fopen.demonii.com%3A1337&amp;tr=udp%3A%2F%2Ftracker.coppersurfer.tk%3A6969&amp;tr=udp%3A%2F%2Fexodus.desync.com%3A6969","seeders":3,"leechers":0,"uploader":".BONE.","files":3,"time":1337120590,"description":" &lt;a href=&quot;http://www.imdb.com/title/tt0848228/&quot; rel=&quot;nofollow&quot; target=&quot;_NEW&quot;&gt;http://www.imdb.com/title/tt0848228/&lt;/a&gt;\n\nPlot: Nick Fury of S.H.I.E.L.D. brings together a team of super humans to form The Avengers to help save the Earth from Loki and his army.\n\n\nDirector: Joss Whedon\nWriters: Zak Penn (story), Joss Whedon (story)\nStars:Robert Downey Jr., Chris Evans and Scarlett Johansson\nGenres:Action | Adventure | Sci-Fi\nCountry:USA\nLanguage:English\n\nThanks : bRaVo\n\n\n\nFormat : AVI\nFormat/Info : Audio Video Interleave\nFormat profile : OpenDML\nFile size : 1.34 GiB\nDuration : 2h 13mn\nOverall bit rate : 1 437 Kbps\nWriting application : Lavf54.3.100\n\nVideo\nID : 0\nFormat : MPEG-4 Visual\nFormat profile : Simple@L3\nFormat settings, BVOP : No\nFormat settings, QPel : No\nFormat settings, GMC : No warppoints\nFormat settings, Matrix : Default (H.263)\nCodec ID : XVID\nCodec ID/Hint : XviD\nDuration : 2h 12mn\nBit rate : 1 300 Kbps\nWidth : 680 pixels\nHeight : 370 pixels\nDisplay aspect ratio : 16:9\nFrame rate : 29.970 fps\nColor space : YUV\nChroma subsampling : 4:2:0\nBit depth : 8 bits\nScan type : Progressive\nCompression mode : Lossy\nBits/(Pixel*Frame) : 0.172\nStream size : 1.21 GiB (90%)\nWriting library : XviD 64\n\nAudio\nID : 1\nFormat : AC-3\nFormat/Info : Audio Coding 3\nMode extension : CM (complete main)\nCodec ID : 2000\nDuration : 2h 13mn\nBit rate mode : Constant\nBit rate : 128 Kbps\nChannel(s) : 2 channels\nChannel positions : Front: L R\nSampling rate : 48.0 KHz\nBit depth : 16 bits\nCompression mode : Lossy\nStream size : 122 MiB (9%)\nAlignment : Aligned on interleaves\nInterleave, duration : 32 ms (0.96 video frame)\n\n\nSCREENS \n &lt;a href=&quot;\nhttp://imgcrave.com/u/Rt6NY.png&quot; rel=&quot;nofollow&quot; target=&quot;_NEW&quot;&gt;\nhttp://imgcrave.com/u/Rt6NY.png&lt;/a&gt; &lt;a href=&quot;\nhttp://imgcrave.com/u/9Yqy.png&quot; rel=&quot;nofollow&quot; target=&quot;_NEW&quot;&gt;\nhttp://imgcrave.com/u/9Yqy.png&lt;/a&gt; &lt;a href=&quot;\nhttp://imgcrave.com/u/tGpnc.png&quot; rel=&quot;nofollow&quot; target=&quot;_NEW&quot;&gt;\nhttp://imgcrave.com/u/tGpnc.png&lt;/a&gt; &lt;a href=&quot;\nhttp://imgcrave.com/u/gb5Eh.png&quot; rel=&quot;nofollow&quot; target=&quot;_NEW&quot;&gt;\nhttp://imgcrave.com/u/gb5Eh.png&lt;/a&gt;\n","torrent":{"xt":"urn:btih:3fbc96a7cb25b43af7723def9dadfb6dddd25888","amp;dn":"The+Avengers+2012+CROPPED+R6+WEBscr+Xvid+AC3-TODE+","amp;tr":["udp%3A%2F%2Ftracker.openbittorrent.com%3A80","udp%3A%2F%2Fopen.demonii.com%3A1337","udp%3A%2F%2Ftracker.coppersurfer.tk%3A6969","udp%3A%2F%2Fexodus.desync.com%3A6969"],"infoHash":"3fbc96a7cb25b43af7723def9dadfb6dddd25888","infoHashBuffer":{"type":"Buffer","data":[63,188,150,167,203,37,180,58,247,114,61,239,157,173,251,109,221,210,88,136]},"announce":[],"urlList":[]}}